# xmcd CD database file
#
# Track frame offsets:
#	150
#	18173
#	45000
#	60334
#	78280
#	91826
#	119753
#	134471
#	147026
#	164468
#	185774
#	198975
#	224924
#
# Disc length: 3358 seconds
#
# Revision: 0
# Processed by: cddbd v1.5PL3 Copyright (c) Steve Scherf et al.
# Submitted via: CDex 1.50
#
DISCID=b20d1c0d
DTITLE=Willie Kent - Blues and Trouble
DYEAR=2004
DGENRE=Blues
TTITLE0=That Will Never Do
TTITLE1=Mean Old World
TTITLE2=Mean Mistreatin' Woman
TTITLE3=Going Down Slow
TTITLE4=Can't Get No Grindin
TTITLE5=Troubles, Troubles, Troubles
TTITLE6=Treat My Baby Right
TTITLE7=Reconsider Baby
TTITLE8=Memory Of You
TTITLE9=Come Home
TTITLE10=Somebody Go To Do
TTITLE11=Sloppy Drunk
TTITLE12=As The Years Go Passing BY
EXTD=YEAR: 2004
EXTT0=
EXTT1=
EXTT2=
EXTT3=
EXTT4=
EXTT5=
EXTT6=
EXTT7=
EXTT8=
EXTT9=
EXTT10=
EXTT11=
EXTT12=
PLAYORDER=
